{"title":"back-up plan (2010) Ex-sub DVDRip-by-NLU","uid":5702452,"size":916072475,"categoryP":"video","categoryS":"movies","magnet":"?xt=urn:btih:bc6046a076994afbb3895432298dded8c1157816&amp;dn=back-up+plan+%282010%29+Ex-sub+DVDRip-by-NLU&amp;tr=udp%3A%2F%2Ftracker.openbittorrent.com%3A80&amp;tr=udp%3A%2F%2Fopen.demonii.com%3A1337&amp;tr=udp%3A%2F%2Ftracker.coppersurfer.tk%3A6969&amp;tr=udp%3A%2F%2Fexodus.desync.com%3A6969","seeders":0,"leechers":1,"uploader":null,"files":9,"time":1279557408,"description":"back-up plan (2010) Ex-sub DVDRip-by-NLU\n\n\nMM:   &lt;a href=&quot; http://www.moviemeter.nl/film/59098&quot; rel=&quot;nofollow&quot; target=&quot;_NEW&quot;&gt; http://www.moviemeter.nl/film/59098&lt;/a&gt;\n\nIMDB:   &lt;a href=&quot; http://www.imdb.com/title/tt1212436/&quot; rel=&quot;nofollow&quot; target=&quot;_NEW&quot;&gt; http://www.imdb.com/title/tt1212436/&lt;/a&gt;\n\nSub: English / Dutch\n\nScreens\n\n1: http://bayimg.com/NanOjAACl\n2: http://bayimg.com/NAnolaAcl\n3: http://bayimg.com/NANONAACl\n4: http://bayimg.com/NAnOOAAcL\n\n\nRelease name                     : back-up plan (2010) Ex-sub DVDRip-by-NLU\nFormat                           : DivX\nFormat/Info                      : Hack of AVI\nFile size                        : 864 MiB\nDuration                         : 1h 44mn\nOverall bit rate                 : 1 160 Kbps\n\nVideo\nID                               : 0\nFormat                           : MPEG-4 Visual\nFormat profile                   : AdvancedSimple@L5\nFormat settings, BVOP            : Yes\nFormat settings, QPel            : No\nFormat settings, GMC             : No warppoints\nFormat settings, Matrix          : Custom\nMuxing mode                      : Packed bitstream\nCodec ID                         : DX50\nCodec ID/Hint                    : DivX 5\nDuration                         : 1h 44mn\nBit rate                         : 1 022 Kbps\nWidth                            : 640 pixels\nHeight                           : 272 pixels\nDisplay aspect ratio             : 2.35:1\nFrame rate                       : 23.976 fps\nResolution                       : 24 bits\nColorimetry                      : 4:2:0\nScan type                        : Progressive\nBits/(Pixel*Frame)               : 0.245\nStream size                      : 761 MiB (88%)\nTitle                            : Video \nWriting library                  : XviD 1.2.1 (UTC 2008-12-04)\n\nAudio\nID                               : 1\nFormat                           : MPEG Audio\nFormat version                   : Version 1\nFormat profile                   : Layer 3\nFormat_Settings_Mode             : Joint stereo / MS Stereo\nCodec ID                         : 55\nCodec ID/Hint                    : MP3\nDuration                         : 1h 44mn\nBit rate mode                    : Constant\nBit rate                         : 128 Kbps\nChannel(s)                       : 2 channels\nSampling rate                    : 48.0 KHz\nResolution                       : 16 bits\nStream size                      : 95.4 MiB (11%)\nAlignment                        : Split accross interleaves\nInterleave, duration             : 42 ms (1.00 video frame)\nInterleave, preload duration     : 500 ms\nTitle                            : Audio \nWriting library                  : LAME3.98r\nEncoding settings                : -m j -V 4 -q 7 -lowpass 17 -b 128","torrent":{"xt":"urn:btih:bc6046a076994afbb3895432298dded8c1157816","amp;dn":"back-up+plan+%282010%29+Ex-sub+DVDRip-by-NLU","amp;tr":["udp%3A%2F%2Ftracker.openbittorrent.com%3A80","udp%3A%2F%2Fopen.demonii.com%3A1337","udp%3A%2F%2Ftracker.coppersurfer.tk%3A6969","udp%3A%2F%2Fexodus.desync.com%3A6969"],"infoHash":"bc6046a076994afbb3895432298dded8c1157816","infoHashBuffer":{"type":"Buffer","data":[188,96,70,160,118,153,74,251,179,137,84,50,41,141,222,216,193,21,120,22]},"announce":[],"urlList":[]}}